<svg width="14" height="14" viewBox="0 0 14 14" fill="none" xmlns="http://www.w3.org/2000/svg">
<path d="M7 14C5.13023 14 3.37239 13.2719 2.05023 11.9498C0.728137 10.6276 0 8.86977 0 7C0 5.13023 0.728137 3.37239 2.05023 2.05023C3.37239 0.728137 5.13023 0 7 0C8.86977 0 10.6276 0.728137 11.9498 2.05023C13.2719 3.37239 14 5.13023 14 7C14 8.86977 13.2719 10.6276 11.9498 11.9498C10.6276 13.2719 8.86977 14 7 14V14ZM7 0.820312C5.34934 0.820312 3.7975 1.46311 2.6303 2.6303C1.46311 3.7975 0.820312 5.34934 0.820312 7C0.820312 8.65066 1.46311 10.2025 2.6303 11.3697C3.7975 12.5369 5.34934 13.1797 7 13.1797C8.65066 13.1797 10.2025 12.5369 11.3697 11.3697C12.5369 10.2025 13.1797 8.65066 13.1797 7C13.1797 5.34934 12.5369 3.7975 11.3697 2.6303C10.2025 1.46311 8.65066 0.820312 7 0.820312V0.820312Z" fill="#FFBE2E"/>
<path d="M6.58972 1.6416H7.41003V2.73623H6.58972V1.6416Z" fill="#FFBE2E"/>
<path d="M9.72476 3.6958L10.4987 2.9219L11.0786 3.50186L10.3047 4.27576L9.72476 3.6958Z" fill="#FFBE2E"/>
<path d="M11.2624 6.58984H12.357V7.41016H11.2624V6.58984Z" fill="#FFBE2E"/>
<path d="M9.72229 10.3049L10.3023 9.72497L11.0762 10.4989L10.4962 11.0788L9.72229 10.3049Z" fill="#FFBE2E"/>
<path d="M6.58972 11.2637H7.41003V12.3583H6.58972V11.2637Z" fill="#FFBE2E"/>
<path d="M2.91846 10.4983L3.69236 9.72439L4.27232 10.3044L3.49842 11.0783L2.91846 10.4983Z" fill="#FFBE2E"/>
<path d="M1.6424 6.58984H2.73702V7.41016H1.6424V6.58984Z" fill="#FFBE2E"/>
<path d="M2.92093 3.50098L3.50089 2.92102L4.27479 3.69492L3.69483 4.27488L2.92093 3.50098Z" fill="#FFBE2E"/>
<path d="M9.89536 7.41013H6.58972V4.10449H7.41003V6.58982H9.89536V7.41013Z" fill="#FFBE2E"/>
</svg>
